<mxfile host="app.diagrams.net" agent="Mozilla/5.0 (X11; Linux x86_64) AppleWebKit/537.36 (KHTML, like Gecko) Chrome/131.0.0.0 Safari/537.36" version="26.1.1">
  <diagram id="C5RBs43oDa-KdzZeNtuy" name="Page-1">
    <mxGraphModel dx="989" dy="537" grid="1" gridSize="10" guides="1" tooltips="1" connect="1" arrows="1" fold="1" page="1" pageScale="1" pageWidth="827" pageHeight="1169" math="0" shadow="0">
      <root>
        <mxCell id="WIyWlLk6GJQsqaUBKTNV-0" />
        <mxCell id="WIyWlLk6GJQsqaUBKTNV-1" parent="WIyWlLk6GJQsqaUBKTNV-0" />
        <mxCell id="6iU3WdP0AgsRKqlOTnaA-0" value="Actor" style="shape=umlActor;verticalLabelPosition=bottom;verticalAlign=top;html=1;outlineConnect=0;" vertex="1" parent="WIyWlLk6GJQsqaUBKTNV-1">
          <mxGeometry x="60" y="170" width="30" height="60" as="geometry" />
        </mxCell>
        <mxCell id="6iU3WdP0AgsRKqlOTnaA-1" value="" style="endArrow=classic;html=1;rounded=0;" edge="1" parent="WIyWlLk6GJQsqaUBKTNV-1">
          <mxGeometry width="50" height="50" relative="1" as="geometry">
            <mxPoint x="100" y="210" as="sourcePoint" />
            <mxPoint x="230" y="210" as="targetPoint" />
          </mxGeometry>
        </mxCell>
        <mxCell id="6iU3WdP0AgsRKqlOTnaA-2" value="Uploads form" style="edgeLabel;html=1;align=center;verticalAlign=middle;resizable=0;points=[];" vertex="1" connectable="0" parent="6iU3WdP0AgsRKqlOTnaA-1">
          <mxGeometry x="-0.2605" y="-2" relative="1" as="geometry">
            <mxPoint x="12" y="-2" as="offset" />
          </mxGeometry>
        </mxCell>
        <mxCell id="6iU3WdP0AgsRKqlOTnaA-3" value="Guard Agent" style="rounded=1;whiteSpace=wrap;html=1;" vertex="1" parent="WIyWlLk6GJQsqaUBKTNV-1">
          <mxGeometry x="230" y="190" width="120" height="50" as="geometry" />
        </mxCell>
        <mxCell id="6iU3WdP0AgsRKqlOTnaA-4" style="edgeStyle=orthogonalEdgeStyle;rounded=0;orthogonalLoop=1;jettySize=auto;html=1;entryX=0.5;entryY=0;entryDx=0;entryDy=0;" edge="1" parent="WIyWlLk6GJQsqaUBKTNV-1" source="6iU3WdP0AgsRKqlOTnaA-8" target="6iU3WdP0AgsRKqlOTnaA-11">
          <mxGeometry relative="1" as="geometry" />
        </mxCell>
        <mxCell id="6iU3WdP0AgsRKqlOTnaA-5" value="No" style="edgeLabel;html=1;align=center;verticalAlign=middle;resizable=0;points=[];" vertex="1" connectable="0" parent="6iU3WdP0AgsRKqlOTnaA-4">
          <mxGeometry x="-0.0566" y="2" relative="1" as="geometry">
            <mxPoint as="offset" />
          </mxGeometry>
        </mxCell>
        <mxCell id="6iU3WdP0AgsRKqlOTnaA-6" style="edgeStyle=orthogonalEdgeStyle;rounded=0;orthogonalLoop=1;jettySize=auto;html=1;entryX=0;entryY=0.5;entryDx=0;entryDy=0;" edge="1" parent="WIyWlLk6GJQsqaUBKTNV-1" source="6iU3WdP0AgsRKqlOTnaA-8" target="6iU3WdP0AgsRKqlOTnaA-14">
          <mxGeometry relative="1" as="geometry">
            <mxPoint x="740" y="221" as="targetPoint" />
          </mxGeometry>
        </mxCell>
        <mxCell id="6iU3WdP0AgsRKqlOTnaA-7" value="YES" style="edgeLabel;html=1;align=center;verticalAlign=middle;resizable=0;points=[];" vertex="1" connectable="0" parent="6iU3WdP0AgsRKqlOTnaA-6">
          <mxGeometry x="-0.0498" y="2" relative="1" as="geometry">
            <mxPoint as="offset" />
          </mxGeometry>
        </mxCell>
        <mxCell id="6iU3WdP0AgsRKqlOTnaA-8" value="is the form valid/all the content is legal" style="rhombus;whiteSpace=wrap;html=1;shadow=0;fontFamily=Helvetica;fontSize=12;align=center;strokeWidth=1;spacing=6;spacingTop=-4;" vertex="1" parent="WIyWlLk6GJQsqaUBKTNV-1">
          <mxGeometry x="430" y="150" width="170" height="142.5" as="geometry" />
        </mxCell>
        <mxCell id="6iU3WdP0AgsRKqlOTnaA-9" value="" style="endArrow=classic;html=1;rounded=0;entryX=0;entryY=0.5;entryDx=0;entryDy=0;exitX=1.014;exitY=0.657;exitDx=0;exitDy=0;exitPerimeter=0;" edge="1" parent="WIyWlLk6GJQsqaUBKTNV-1" source="6iU3WdP0AgsRKqlOTnaA-3" target="6iU3WdP0AgsRKqlOTnaA-8">
          <mxGeometry width="50" height="50" relative="1" as="geometry">
            <mxPoint x="330" y="310" as="sourcePoint" />
            <mxPoint x="380" y="260" as="targetPoint" />
          </mxGeometry>
        </mxCell>
        <mxCell id="6iU3WdP0AgsRKqlOTnaA-10" style="edgeStyle=orthogonalEdgeStyle;rounded=0;orthogonalLoop=1;jettySize=auto;html=1;" edge="1" parent="WIyWlLk6GJQsqaUBKTNV-1" source="6iU3WdP0AgsRKqlOTnaA-11">
          <mxGeometry relative="1" as="geometry">
            <mxPoint x="70" y="260" as="targetPoint" />
          </mxGeometry>
        </mxCell>
        <mxCell id="6iU3WdP0AgsRKqlOTnaA-11" value="Response" style="rounded=1;whiteSpace=wrap;html=1;" vertex="1" parent="WIyWlLk6GJQsqaUBKTNV-1">
          <mxGeometry x="560" y="400" width="120" height="40" as="geometry" />
        </mxCell>
        <mxCell id="6iU3WdP0AgsRKqlOTnaA-12" style="edgeStyle=orthogonalEdgeStyle;rounded=0;orthogonalLoop=1;jettySize=auto;html=1;entryX=0;entryY=0.5;entryDx=0;entryDy=0;" edge="1" parent="WIyWlLk6GJQsqaUBKTNV-1" source="6iU3WdP0AgsRKqlOTnaA-14" target="6iU3WdP0AgsRKqlOTnaA-18">
          <mxGeometry relative="1" as="geometry" />
        </mxCell>
        <mxCell id="6iU3WdP0AgsRKqlOTnaA-13" style="edgeStyle=orthogonalEdgeStyle;rounded=0;orthogonalLoop=1;jettySize=auto;html=1;exitX=1;exitY=0.25;exitDx=0;exitDy=0;entryX=0;entryY=0.5;entryDx=0;entryDy=0;" edge="1" parent="WIyWlLk6GJQsqaUBKTNV-1" source="6iU3WdP0AgsRKqlOTnaA-14" target="6iU3WdP0AgsRKqlOTnaA-16">
          <mxGeometry relative="1" as="geometry" />
        </mxCell>
        <mxCell id="6iU3WdP0AgsRKqlOTnaA-14" value="Classifier Agent" style="rounded=1;whiteSpace=wrap;html=1;" vertex="1" parent="WIyWlLk6GJQsqaUBKTNV-1">
          <mxGeometry x="730" y="195" width="120" height="50" as="geometry" />
        </mxCell>
        <mxCell id="6iU3WdP0AgsRKqlOTnaA-15" style="edgeStyle=orthogonalEdgeStyle;rounded=0;orthogonalLoop=1;jettySize=auto;html=1;" edge="1" parent="WIyWlLk6GJQsqaUBKTNV-1" source="6iU3WdP0AgsRKqlOTnaA-16" target="6iU3WdP0AgsRKqlOTnaA-22">
          <mxGeometry relative="1" as="geometry" />
        </mxCell>
        <mxCell id="6iU3WdP0AgsRKqlOTnaA-16" value="BankLoanFormAgent" style="rounded=1;whiteSpace=wrap;html=1;" vertex="1" parent="WIyWlLk6GJQsqaUBKTNV-1">
          <mxGeometry x="920" y="140" width="150" height="40" as="geometry" />
        </mxCell>
        <mxCell id="6iU3WdP0AgsRKqlOTnaA-17" style="edgeStyle=orthogonalEdgeStyle;rounded=0;orthogonalLoop=1;jettySize=auto;html=1;exitX=1;exitY=0.5;exitDx=0;exitDy=0;entryX=0;entryY=0.5;entryDx=0;entryDy=0;" edge="1" parent="WIyWlLk6GJQsqaUBKTNV-1" source="6iU3WdP0AgsRKqlOTnaA-18" target="6iU3WdP0AgsRKqlOTnaA-22">
          <mxGeometry relative="1" as="geometry" />
        </mxCell>
        <mxCell id="6iU3WdP0AgsRKqlOTnaA-18" value="InsuranceFormAgent" style="rounded=1;whiteSpace=wrap;html=1;" vertex="1" parent="WIyWlLk6GJQsqaUBKTNV-1">
          <mxGeometry x="920" y="200" width="150" height="40" as="geometry" />
        </mxCell>
        <mxCell id="6iU3WdP0AgsRKqlOTnaA-19" style="edgeStyle=orthogonalEdgeStyle;rounded=0;orthogonalLoop=1;jettySize=auto;html=1;entryX=0.5;entryY=1;entryDx=0;entryDy=0;" edge="1" parent="WIyWlLk6GJQsqaUBKTNV-1" source="6iU3WdP0AgsRKqlOTnaA-20" target="6iU3WdP0AgsRKqlOTnaA-22">
          <mxGeometry relative="1" as="geometry" />
        </mxCell>
        <mxCell id="6iU3WdP0AgsRKqlOTnaA-20" value="GovernmentFormAgent" style="rounded=1;whiteSpace=wrap;html=1;" vertex="1" parent="WIyWlLk6GJQsqaUBKTNV-1">
          <mxGeometry x="920" y="260" width="150" height="40" as="geometry" />
        </mxCell>
        <mxCell id="6iU3WdP0AgsRKqlOTnaA-21" value="" style="endArrow=classic;html=1;rounded=0;entryX=0;entryY=0.5;entryDx=0;entryDy=0;exitX=1.007;exitY=0.881;exitDx=0;exitDy=0;exitPerimeter=0;" edge="1" parent="WIyWlLk6GJQsqaUBKTNV-1" source="6iU3WdP0AgsRKqlOTnaA-14" target="6iU3WdP0AgsRKqlOTnaA-20">
          <mxGeometry width="50" height="50" relative="1" as="geometry">
            <mxPoint x="770" y="360" as="sourcePoint" />
            <mxPoint x="820" y="310" as="targetPoint" />
          </mxGeometry>
        </mxCell>
        <mxCell id="6iU3WdP0AgsRKqlOTnaA-22" value="VectorDB-Collection" style="rounded=1;whiteSpace=wrap;html=1;" vertex="1" parent="WIyWlLk6GJQsqaUBKTNV-1">
          <mxGeometry x="1150" y="200" width="120" height="40" as="geometry" />
        </mxCell>
        <mxCell id="6iU3WdP0AgsRKqlOTnaA-23" value="" style="rounded=1;whiteSpace=wrap;html=1;opacity=90;fillColor=none;" vertex="1" parent="WIyWlLk6GJQsqaUBKTNV-1">
          <mxGeometry x="897" y="116.25" width="190" height="210" as="geometry" />
        </mxCell>
        <mxCell id="6iU3WdP0AgsRKqlOTnaA-24" value="" style="endArrow=classic;html=1;rounded=0;entryX=1;entryY=0.5;entryDx=0;entryDy=0;exitX=0.536;exitY=1.01;exitDx=0;exitDy=0;exitPerimeter=0;" edge="1" parent="WIyWlLk6GJQsqaUBKTNV-1" source="6iU3WdP0AgsRKqlOTnaA-23" target="6iU3WdP0AgsRKqlOTnaA-11">
          <mxGeometry width="50" height="50" relative="1" as="geometry">
            <mxPoint x="760" y="480" as="sourcePoint" />
            <mxPoint x="810" y="430" as="targetPoint" />
            <Array as="points">
              <mxPoint x="998" y="420" />
            </Array>
          </mxGeometry>
        </mxCell>
        <mxCell id="6iU3WdP0AgsRKqlOTnaA-25" value="Chat Module" style="rounded=1;whiteSpace=wrap;html=1;" vertex="1" parent="WIyWlLk6GJQsqaUBKTNV-1">
          <mxGeometry x="80" y="525" width="120" height="60" as="geometry" />
        </mxCell>
        <mxCell id="6iU3WdP0AgsRKqlOTnaA-27" style="edgeStyle=none;curved=1;rounded=0;orthogonalLoop=1;jettySize=auto;html=1;fontSize=12;startSize=8;endSize=8;entryX=1;entryY=0.5;entryDx=0;entryDy=0;" edge="1" parent="WIyWlLk6GJQsqaUBKTNV-1" source="6iU3WdP0AgsRKqlOTnaA-26" target="6iU3WdP0AgsRKqlOTnaA-25">
          <mxGeometry relative="1" as="geometry">
            <mxPoint x="210" y="555" as="targetPoint" />
          </mxGeometry>
        </mxCell>
        <mxCell id="6iU3WdP0AgsRKqlOTnaA-28" value="Reads the chat&amp;nbsp;&lt;div&gt;messages&lt;/div&gt;" style="edgeLabel;html=1;align=center;verticalAlign=middle;resizable=0;points=[];fontSize=12;" vertex="1" connectable="0" parent="6iU3WdP0AgsRKqlOTnaA-27">
          <mxGeometry x="0.2267" y="3" relative="1" as="geometry">
            <mxPoint x="22" y="-3" as="offset" />
          </mxGeometry>
        </mxCell>
        <mxCell id="6iU3WdP0AgsRKqlOTnaA-26" value="Sentiment Analysis Agent" style="rounded=1;whiteSpace=wrap;html=1;" vertex="1" parent="WIyWlLk6GJQsqaUBKTNV-1">
          <mxGeometry x="350" y="530" width="120" height="50" as="geometry" />
        </mxCell>
        <mxCell id="6iU3WdP0AgsRKqlOTnaA-29" value="Sentiment Analysis Agent" style="rounded=1;whiteSpace=wrap;html=1;" vertex="1" parent="WIyWlLk6GJQsqaUBKTNV-1">
          <mxGeometry x="340" y="600" width="120" height="50" as="geometry" />
        </mxCell>
      </root>
    </mxGraphModel>
  </diagram>
</mxfile>
